<svg width="18" height="20" viewBox="0 0 18 20" fill="none" xmlns="http://www.w3.org/2000/svg">
<g clip-path="url(#clip0_224_1114)">
<g clip-path="url(#clip1_224_1114)">
<path d="M7.12891 2.01562L6.38672 3.125H12.0508L11.3086 2.01562C11.25 1.92969 11.1523 1.875 11.0469 1.875H7.38672C7.28125 1.875 7.18359 1.92578 7.125 2.01562H7.12891ZM12.8711 0.976562L14.3047 3.125H14.8438H16.7188H17.0312C17.5508 3.125 17.9688 3.54297 17.9688 4.0625C17.9688 4.58203 17.5508 5 17.0312 5H16.7188V16.875C16.7188 18.6016 15.3203 20 13.5938 20H4.84375C3.11719 20 1.71875 18.6016 1.71875 16.875V5H1.40625C0.886719 5 0.46875 4.58203 0.46875 4.0625C0.46875 3.54297 0.886719 3.125 1.40625 3.125H1.71875H3.59375H4.13281L5.56641 0.972656C5.97266 0.367188 6.65625 0 7.38672 0H11.0469C11.7773 0 12.4609 0.367188 12.8672 0.972656L12.8711 0.976562ZM3.59375 5V16.875C3.59375 17.5664 4.15234 18.125 4.84375 18.125H13.5938C14.2852 18.125 14.8438 17.5664 14.8438 16.875V5H3.59375ZM6.71875 7.5V15.625C6.71875 15.9688 6.4375 16.25 6.09375 16.25C5.75 16.25 5.46875 15.9688 5.46875 15.625V7.5C5.46875 7.15625 5.75 6.875 6.09375 6.875C6.4375 6.875 6.71875 7.15625 6.71875 7.5ZM9.84375 7.5V15.625C9.84375 15.9688 9.5625 16.25 9.21875 16.25C8.875 16.25 8.59375 15.9688 8.59375 15.625V7.5C8.59375 7.15625 8.875 6.875 9.21875 6.875C9.5625 6.875 9.84375 7.15625 9.84375 7.5ZM12.9688 7.5V15.625C12.9688 15.9688 12.6875 16.25 12.3438 16.25C12 16.25 11.7188 15.9688 11.7188 15.625V7.5C11.7188 7.15625 12 6.875 12.3438 6.875C12.6875 6.875 12.9688 7.15625 12.9688 7.5Z" fill="#9CA3AF"/>
</g>
</g>
<defs>
<clipPath id="clip0_224_1114">
<rect width="17.5" height="20" fill="white" transform="translate(0.46875)"/>
</clipPath>
<clipPath id="clip1_224_1114">
<path d="M0.46875 0H17.9688V20H0.46875V0Z" fill="white"/>
</clipPath>
</defs>
</svg>
