<svg width="21" height="20" viewBox="0 0 21 20" fill="none" xmlns="http://www.w3.org/2000/svg">
<g clip-path="url(#clip0_224_1110)">
<g clip-path="url(#clip1_224_1110)">
<path d="M17.7188 15H10.2188C8.83984 15 7.71875 13.8789 7.71875 12.5V2.5C7.71875 1.12109 8.83984 0 10.2188 0H15.6914C16.1875 0 16.6641 0.199219 17.0156 0.550781L19.668 3.20312C20.0195 3.55469 20.2188 4.03125 20.2188 4.52734V12.5C20.2188 13.8789 19.0977 15 17.7188 15ZM2.71875 5H6.46875V6.875H2.71875C2.375 6.875 2.09375 7.15625 2.09375 7.5V17.5C2.09375 17.8438 2.375 18.125 2.71875 18.125H10.2188C10.5625 18.125 10.8438 17.8438 10.8438 17.5V16.25H12.7188V17.5C12.7188 18.8789 11.5977 20 10.2188 20H2.71875C1.33984 20 0.21875 18.8789 0.21875 17.5V7.5C0.21875 6.12109 1.33984 5 2.71875 5Z" fill="#9CA3AF"/>
</g>
</g>
<defs>
<clipPath id="clip0_224_1110">
<rect width="20" height="20" fill="white" transform="translate(0.21875)"/>
</clipPath>
<clipPath id="clip1_224_1110">
<path d="M0.21875 0H20.2188V20H0.21875V0Z" fill="white"/>
</clipPath>
</defs>
</svg>
