<svg width="21" height="20" viewBox="0 0 21 20" fill="none" xmlns="http://www.w3.org/2000/svg">
<g clip-path="url(#clip0_224_1106)">
<g clip-path="url(#clip1_224_1106)">
<path d="M17.4453 2.30078L17.918 2.77344C18.2852 3.14062 18.2852 3.73438 17.918 4.09766L16.7812 5.23828L14.9805 3.4375L16.1172 2.30078C16.4844 1.93359 17.0781 1.93359 17.4414 2.30078H17.4453ZM8.41406 10.0078L13.6562 4.76172L15.457 6.5625L10.2109 11.8047C10.0977 11.918 9.95703 12 9.80469 12.043L7.51953 12.6953L8.17188 10.4102C8.21484 10.2578 8.29688 10.1172 8.41016 10.0039L8.41406 10.0078ZM14.793 0.976562L7.08594 8.67969C6.74609 9.01953 6.5 9.4375 6.37109 9.89453L5.25391 13.8008C5.16016 14.1289 5.25 14.4805 5.49219 14.7227C5.73438 14.9648 6.08594 15.0547 6.41406 14.9609L10.3203 13.8438C10.7812 13.7109 11.1992 13.4648 11.5352 13.1289L19.2422 5.42578C20.3398 4.32812 20.3398 2.54688 19.2422 1.44922L18.7695 0.976562C17.6719 -0.121094 15.8906 -0.121094 14.793 0.976562ZM3.65625 2.5C1.75781 2.5 0.21875 4.03906 0.21875 5.9375V16.5625C0.21875 18.4609 1.75781 20 3.65625 20H14.2812C16.1797 20 17.7188 18.4609 17.7188 16.5625V12.1875C17.7188 11.668 17.3008 11.25 16.7812 11.25C16.2617 11.25 15.8438 11.668 15.8438 12.1875V16.5625C15.8438 17.4258 15.1445 18.125 14.2812 18.125H3.65625C2.79297 18.125 2.09375 17.4258 2.09375 16.5625V5.9375C2.09375 5.07422 2.79297 4.375 3.65625 4.375H8.03125C8.55078 4.375 8.96875 3.95703 8.96875 3.4375C8.96875 2.91797 8.55078 2.5 8.03125 2.5H3.65625Z" fill="#9CA3AF"/>
</g>
</g>
<defs>
<clipPath id="clip0_224_1106">
<rect width="20" height="20" fill="white" transform="translate(0.21875)"/>
</clipPath>
<clipPath id="clip1_224_1106">
<path d="M0.21875 0H20.2188V20H0.21875V0Z" fill="white"/>
</clipPath>
</defs>
</svg>
