<svg width="16" height="14" viewBox="0 0 16 14" fill="none" xmlns="http://www.w3.org/2000/svg">
<path d="M11.9827 3.76362C11.762 3.71962 11.5813 3.58162 11.488 3.38428C10.4547 1.20362 8.05933 -0.0157166 5.66533 0.425617C3.484 0.825617 1.774 2.56695 1.40933 4.75962C1.30133 5.40695 1.30933 6.05495 1.43133 6.68628C1.47133 6.89228 1.38267 7.12162 1.20067 7.28695C0.437333 7.98095 0 8.96962 0 10.0003C0 12.0216 1.64467 13.667 3.66667 13.667H11C13.7573 13.667 16 11.4243 16 8.66695C16 6.29028 14.3107 4.22762 11.9827 3.76362ZM11 12.333H3.66667C2.38 12.333 1.33333 11.2863 1.33333 9.99962C1.33333 9.34428 1.612 8.71428 2.09733 8.27295C2.62133 7.79628 2.86733 7.09095 2.73933 6.43095C2.64733 5.95628 2.642 5.46762 2.72333 4.97695C2.992 3.36228 4.3 2.02962 5.904 1.73562C6.16067 1.68895 6.416 1.66628 6.668 1.66628C8.20933 1.66628 9.60467 2.52562 10.2827 3.95562C10.558 4.53695 11.0827 4.94362 11.7213 5.07095C13.428 5.41162 14.666 6.92362 14.666 8.66695C14.666 10.6883 13.0207 12.3336 10.9993 12.3336L11 12.333ZM10.0807 7.19495C10.3413 7.45562 10.3413 7.87695 10.0807 8.13762C9.95067 8.26762 9.78 8.33295 9.60933 8.33295C9.43867 8.33295 9.268 8.26762 9.138 8.13762L8 6.99962V10.333C8 10.7016 7.70133 10.9996 7.33333 10.9996C6.96533 10.9996 6.66667 10.7016 6.66667 10.333V6.99962L5.52867 8.13762C5.268 8.39828 4.84667 8.39828 4.586 8.13762C4.32533 7.87695 4.32533 7.45562 4.586 7.19495L6.39067 5.39028C6.648 5.13295 6.986 5.00362 7.324 5.00162L7.33333 4.99962L7.34267 5.00162C7.68133 5.00362 8.01867 5.13295 8.276 5.39028L10.0807 7.19495Z" fill="#668091"/>
</svg>
