<svg width="15" height="16" viewBox="0 0 15 16" fill="none" xmlns="http://www.w3.org/2000/svg">
<g clip-path="url(#clip0_224_970)">
<path d="M5.73438 1.6125L5.14062 2.5H9.67188L9.07812 1.6125C9.03125 1.54375 8.95312 1.5 8.86875 1.5H5.94063C5.85625 1.5 5.77812 1.54062 5.73125 1.6125H5.73438ZM10.3281 0.78125L11.475 2.5H11.9062H13.4062H13.6562C14.0719 2.5 14.4062 2.83437 14.4062 3.25C14.4062 3.66563 14.0719 4 13.6562 4H13.4062V13.5C13.4062 14.8813 12.2875 16 10.9062 16H3.90625C2.525 16 1.40625 14.8813 1.40625 13.5V4H1.15625C0.740625 4 0.40625 3.66563 0.40625 3.25C0.40625 2.83437 0.740625 2.5 1.15625 2.5H1.40625H2.90625H3.3375L4.48438 0.778125C4.80937 0.29375 5.35625 0 5.94063 0H8.86875C9.45312 0 10 0.29375 10.325 0.778125L10.3281 0.78125ZM2.90625 4V13.5C2.90625 14.0531 3.35313 14.5 3.90625 14.5H10.9062C11.4594 14.5 11.9062 14.0531 11.9062 13.5V4H2.90625ZM5.40625 6V12.5C5.40625 12.775 5.18125 13 4.90625 13C4.63125 13 4.40625 12.775 4.40625 12.5V6C4.40625 5.725 4.63125 5.5 4.90625 5.5C5.18125 5.5 5.40625 5.725 5.40625 6ZM7.90625 6V12.5C7.90625 12.775 7.68125 13 7.40625 13C7.13125 13 6.90625 12.775 6.90625 12.5V6C6.90625 5.725 7.13125 5.5 7.40625 5.5C7.68125 5.5 7.90625 5.725 7.90625 6ZM10.4062 6V12.5C10.4062 12.775 10.1812 13 9.90625 13C9.63125 13 9.40625 12.775 9.40625 12.5V6C9.40625 5.725 9.63125 5.5 9.90625 5.5C10.1812 5.5 10.4062 5.725 10.4062 6Z" fill="#DC2626"/>
</g>
<defs>
<clipPath id="clip0_224_970">
<path d="M0.40625 0H14.4062V16H0.40625V0Z" fill="white"/>
</clipPath>
</defs>
</svg>
