<svg width="12" height="24" viewBox="0 0 12 24" fill="none" xmlns="http://www.w3.org/2000/svg">
<path d="M12 24H0V0H12V24Z" stroke="#E5E7EB"/>
<g clip-path="url(#clip0_714_7139)">
<g clip-path="url(#clip1_714_7139)">
<path d="M8.75 6H10C11.1031 6 12 6.89687 12 8V18C12 19.1031 11.1031 20 10 20H2C0.896875 20 0 19.1031 0 18V8C0 6.89687 0.896875 6 2 6H3.25H3.55C3.78125 4.85938 4.79063 4 6 4C7.20937 4 8.21875 4.85938 8.45 6H8.75ZM2 7.5C1.725 7.5 1.5 7.725 1.5 8V18C1.5 18.275 1.725 18.5 2 18.5H10C10.275 18.5 10.5 18.275 10.5 18V8C10.5 7.725 10.275 7.5 10 7.5H9.5V8.25C9.5 8.66563 9.16562 9 8.75 9H6H3.25C2.83437 9 2.5 8.66563 2.5 8.25V7.5H2ZM6 7.25C6.19891 7.25 6.38968 7.17098 6.53033 7.03033C6.67098 6.88968 6.75 6.69891 6.75 6.5C6.75 6.30109 6.67098 6.11032 6.53033 5.96967C6.38968 5.82902 6.19891 5.75 6 5.75C5.80109 5.75 5.61032 5.82902 5.46967 5.96967C5.32902 6.11032 5.25 6.30109 5.25 6.5C5.25 6.69891 5.32902 6.88968 5.46967 7.03033C5.61032 7.17098 5.80109 7.25 6 7.25Z" fill="#6B7280"/>
</g>
</g>
<defs>
<clipPath id="clip0_714_7139">
<rect width="12" height="16" fill="white" transform="translate(0 4)"/>
</clipPath>
<clipPath id="clip1_714_7139">
<path d="M0 4H12V20H0V4Z" fill="white"/>
</clipPath>
</defs>
</svg>
