<svg width="21" height="20" viewBox="0 0 21 20" fill="none" xmlns="http://www.w3.org/2000/svg">
<g clip-path="url(#clip0_224_1118)">
<g clip-path="url(#clip1_224_1118)">
<path d="M14.5625 16.1133L4.10547 5.65625C3.23047 6.87891 2.71875 8.37891 2.71875 10C2.71875 14.1406 6.07812 17.5 10.2188 17.5C11.8398 17.5 13.3398 16.9883 14.5625 16.1133ZM16.332 14.3438C17.207 13.1211 17.7188 11.6211 17.7188 10C17.7188 5.85938 14.3594 2.5 10.2188 2.5C8.59766 2.5 7.09766 3.01172 5.875 3.88672L16.332 14.3438ZM0.21875 10C0.21875 7.34784 1.27232 4.8043 3.14768 2.92893C5.02305 1.05357 7.56659 0 10.2188 0C12.8709 0 15.4145 1.05357 17.2898 2.92893C19.1652 4.8043 20.2188 7.34784 20.2188 10C20.2188 12.6522 19.1652 15.1957 17.2898 17.0711C15.4145 18.9464 12.8709 20 10.2188 20C7.56659 20 5.02305 18.9464 3.14768 17.0711C1.27232 15.1957 0.21875 12.6522 0.21875 10Z" fill="#9CA3AF"/>
</g>
</g>
<defs>
<clipPath id="clip0_224_1118">
<rect width="20" height="20" fill="white" transform="translate(0.21875)"/>
</clipPath>
<clipPath id="clip1_224_1118">
<path d="M0.21875 0H20.2188V20H0.21875V0Z" fill="white"/>
</clipPath>
</defs>
</svg>
