<svg width="16" height="20" viewBox="0 0 16 20" fill="none" xmlns="http://www.w3.org/2000/svg">
<path d="M15.875 20H0.125V0H15.875V20Z" stroke="#E5E7EB"/>
<g clip-path="url(#clip0_795_2579)">
<path d="M1.875 3.625C0.909766 3.625 0.125 4.40977 0.125 5.375V6.25H15.875V5.375C15.875 4.40977 15.0902 3.625 14.125 3.625H1.875ZM15.875 8.875H0.125V14.125C0.125 15.0902 0.909766 15.875 1.875 15.875H14.125C15.0902 15.875 15.875 15.0902 15.875 14.125V8.875ZM3.1875 12.375H4.9375C5.17812 12.375 5.375 12.5719 5.375 12.8125C5.375 13.0531 5.17812 13.25 4.9375 13.25H3.1875C2.94688 13.25 2.75 13.0531 2.75 12.8125C2.75 12.5719 2.94688 12.375 3.1875 12.375ZM6.25 12.8125C6.25 12.5719 6.44688 12.375 6.6875 12.375H10.1875C10.4281 12.375 10.625 12.5719 10.625 12.8125C10.625 13.0531 10.4281 13.25 10.1875 13.25H6.6875C6.44688 13.25 6.25 13.0531 6.25 12.8125Z" fill="#2563EB"/>
</g>
<defs>
<clipPath id="clip0_795_2579">
<path d="M0.125 2.75H15.875V16.75H0.125V2.75Z" fill="white"/>
</clipPath>
</defs>
</svg>
