<svg width="16" height="16" viewBox="0 0 16 16" fill="none" xmlns="http://www.w3.org/2000/svg">
<path d="M12.8001 2.13281H3.2001C2.77575 2.13281 2.36879 2.30138 2.06873 2.60144C1.76867 2.9015 1.6001 3.30847 1.6001 3.73281L1.6001 13.8661H14.4001V3.73281C14.4001 3.30847 14.2315 2.9015 13.9315 2.60144C13.6314 2.30138 13.2244 2.13281 12.8001 2.13281ZM3.2001 3.19948H12.8001C12.9415 3.19948 13.0772 3.25567 13.1772 3.35569C13.2772 3.45571 13.3334 3.59136 13.3334 3.73281V4.08855L9.13183 8.29068C8.83126 8.59005 8.42432 8.75813 8.0001 8.75813C7.57588 8.75813 7.16894 8.59005 6.86836 8.29068L2.66676 4.08855V3.73281C2.66676 3.59136 2.72295 3.45571 2.82297 3.35569C2.92299 3.25567 3.05865 3.19948 3.2001 3.19948ZM2.66676 12.7995V5.59948L6.11423 9.04481C6.61483 9.54415 7.29304 9.82457 8.0001 9.82457C8.70716 9.82457 9.38536 9.54415 9.88597 9.04481L13.3334 5.59948V12.7995H2.66676Z" fill="#668091"/>
</svg>
