<svg width="14" height="20" viewBox="0 0 14 20" fill="none" xmlns="http://www.w3.org/2000/svg">
<path d="M14 20H0V0H14V20Z" stroke="#E5E7EB"/>
<g clip-path="url(#clip0_795_2584)">
<path d="M0 4.5C0 3.53477 0.784766 2.75 1.75 2.75H6.125V6.25C6.125 6.73398 6.51602 7.125 7 7.125H10.5V11.0625H4.8125C3.84727 11.0625 3.0625 11.8473 3.0625 12.8125V16.75H1.75C0.784766 16.75 0 15.9652 0 15V4.5ZM10.5 6.25H7V2.75L10.5 6.25ZM4.8125 12.375H5.6875C6.53242 12.375 7.21875 13.0613 7.21875 13.9062C7.21875 14.7512 6.53242 15.4375 5.6875 15.4375H5.25V16.3125C5.25 16.5531 5.05312 16.75 4.8125 16.75C4.57188 16.75 4.375 16.5531 4.375 16.3125V15V12.8125C4.375 12.5719 4.57188 12.375 4.8125 12.375ZM5.6875 14.5625C6.05117 14.5625 6.34375 14.2699 6.34375 13.9062C6.34375 13.5426 6.05117 13.25 5.6875 13.25H5.25V14.5625H5.6875ZM8.3125 12.375H9.1875C9.91211 12.375 10.5 12.9629 10.5 13.6875V15.4375C10.5 16.1621 9.91211 16.75 9.1875 16.75H8.3125C8.07187 16.75 7.875 16.5531 7.875 16.3125V12.8125C7.875 12.5719 8.07187 12.375 8.3125 12.375ZM9.1875 15.875C9.42813 15.875 9.625 15.6781 9.625 15.4375V13.6875C9.625 13.4469 9.42813 13.25 9.1875 13.25H8.75V15.875H9.1875ZM11.375 12.8125C11.375 12.5719 11.5719 12.375 11.8125 12.375H13.125C13.3656 12.375 13.5625 12.5719 13.5625 12.8125C13.5625 13.0531 13.3656 13.25 13.125 13.25H12.25V14.125H13.125C13.3656 14.125 13.5625 14.3219 13.5625 14.5625C13.5625 14.8031 13.3656 15 13.125 15H12.25V16.3125C12.25 16.5531 12.0531 16.75 11.8125 16.75C11.5719 16.75 11.375 16.5531 11.375 16.3125V14.5625V12.8125Z" fill="#EA580C"/>
</g>
<defs>
<clipPath id="clip0_795_2584">
<path d="M0 2.75H14V16.75H0V2.75Z" fill="white"/>
</clipPath>
</defs>
</svg>
