<svg width="14" height="20" viewBox="0 0 14 20" fill="none" xmlns="http://www.w3.org/2000/svg">
<path d="M13.6719 20H0.328125V0H13.6719V20Z" stroke="#E5E7EB"/>
<g clip-path="url(#clip0_795_2581)">
<path d="M13.6719 9.90859C13.6719 13.7777 11.0223 16.5312 7.10938 16.5312C3.35781 16.5312 0.328125 13.5016 0.328125 9.75C0.328125 5.99844 3.35781 2.96875 7.10938 2.96875C8.93594 2.96875 10.4727 3.63867 11.6566 4.74336L9.81094 6.51797C7.39648 4.18828 2.90664 5.93828 2.90664 9.75C2.90664 12.1152 4.79609 14.032 7.10938 14.032C9.79453 14.032 10.8008 12.107 10.9594 11.109H7.10938V8.77656H13.5652C13.6281 9.12383 13.6719 9.45742 13.6719 9.90859Z" fill="#DC2626"/>
</g>
<defs>
<clipPath id="clip0_795_2581">
<path d="M0.328125 2.75H13.6719V16.75H0.328125V2.75Z" fill="white"/>
</clipPath>
</defs>
</svg>
