<svg width="14" height="20" viewBox="0 0 14 20" fill="none" xmlns="http://www.w3.org/2000/svg">
<path d="M14 20H0V0H14V20Z" stroke="#E5E7EB"/>
<g clip-path="url(#clip0_795_2582)">
<path d="M12.8953 3.34336C12.2965 2.74453 11.3285 2.74453 10.7297 3.34336L9.90664 4.16367L12.5836 6.84062L13.4066 6.01758C14.0055 5.41875 14.0055 4.45078 13.4066 3.85195L12.8953 3.34336ZM4.71406 9.35898C4.54727 9.52578 4.41875 9.73086 4.34492 9.95781L3.53555 12.3859C3.45625 12.6211 3.51914 12.8809 3.69414 13.0586C3.86914 13.2363 4.12891 13.2965 4.3668 13.2172L6.79492 12.4078C7.01914 12.334 7.22422 12.2055 7.39375 12.0387L11.9684 7.46133L9.28867 4.78164L4.71406 9.35898ZM2.625 4.5C1.17578 4.5 0 5.67578 0 7.125V14.125C0 15.5742 1.17578 16.75 2.625 16.75H9.625C11.0742 16.75 12.25 15.5742 12.25 14.125V11.5C12.25 11.016 11.859 10.625 11.375 10.625C10.891 10.625 10.5 11.016 10.5 11.5V14.125C10.5 14.609 10.109 15 9.625 15H2.625C2.14102 15 1.75 14.609 1.75 14.125V7.125C1.75 6.64102 2.14102 6.25 2.625 6.25H5.25C5.73398 6.25 6.125 5.85898 6.125 5.375C6.125 4.89101 5.73398 4.5 5.25 4.5H2.625Z" fill="#9333EA"/>
</g>
<defs>
<clipPath id="clip0_795_2582">
<path d="M0 2.75H14V16.75H0V2.75Z" fill="white"/>
</clipPath>
</defs>
</svg>
