<svg width="13" height="15" viewBox="0 0 13 15" fill="none" xmlns="http://www.w3.org/2000/svg">
<g clip-path="url(#clip0_795_2430)">
<g clip-path="url(#clip1_795_2430)">
<path d="M4.6875 4.6875V6H9.0625V4.6875C9.0625 3.47891 8.08359 2.5 6.875 2.5C5.66641 2.5 4.6875 3.47891 4.6875 4.6875ZM2.9375 6V4.6875C2.9375 2.51367 4.70117 0.75 6.875 0.75C9.04883 0.75 10.8125 2.51367 10.8125 4.6875V6H11.25C12.2152 6 13 6.78477 13 7.75V13C13 13.9652 12.2152 14.75 11.25 14.75H2.5C1.53477 14.75 0.75 13.9652 0.75 13V7.75C0.75 6.78477 1.53477 6 2.5 6H2.9375Z" fill="#9CA3AF"/>
</g>
</g>
<defs>
<clipPath id="clip0_795_2430">
<rect width="12.25" height="14" fill="white" transform="translate(0.75 0.75)"/>
</clipPath>
<clipPath id="clip1_795_2430">
<path d="M0.75 0.75H13V14.75H0.75V0.75Z" fill="white"/>
</clipPath>
</defs>
</svg>
