<svg width="9" height="15" viewBox="0 0 9 15" fill="none" xmlns="http://www.w3.org/2000/svg">
<g clip-path="url(#clip0_714_4878)">
<path d="M4.37504 0.75C4.85902 0.75 5.25004 1.14102 5.25004 1.625V2.60117C5.29379 2.60664 5.33481 2.61211 5.37856 2.62031C5.38949 2.62305 5.3977 2.62305 5.40863 2.62578L6.72113 2.86641C7.19691 2.95391 7.51137 3.41055 7.42387 3.88359C7.33637 4.35664 6.87973 4.67383 6.40668 4.58633L5.10785 4.34844C4.25199 4.22266 3.49731 4.30742 2.96684 4.51797C2.43637 4.72852 2.22309 5.01836 2.17387 5.28633C2.11918 5.57891 2.1602 5.74297 2.20668 5.84414C2.2559 5.95078 2.35707 6.07109 2.55668 6.20508C3.00238 6.49766 3.68598 6.68906 4.57191 6.92422L4.65121 6.94609C5.43324 7.15391 6.39027 7.40547 7.10121 7.87031C7.48949 8.12461 7.8559 8.46914 8.08285 8.95039C8.31527 9.43984 8.36449 9.98672 8.25785 10.5691C8.06918 11.6082 7.35277 12.3027 6.4641 12.6664C6.08949 12.8195 5.68207 12.918 5.25004 12.9672V13.875C5.25004 14.359 4.85902 14.75 4.37504 14.75C3.89106 14.75 3.50004 14.359 3.50004 13.875V12.9207C3.4891 12.918 3.47543 12.918 3.46449 12.9152H3.45902C2.79184 12.8113 1.69535 12.5242 0.957071 12.1961C0.516836 11.9992 0.317227 11.4824 0.514102 11.0422C0.710977 10.602 1.22777 10.4023 1.66801 10.5992C2.23949 10.8535 3.18012 11.1051 3.72426 11.1898C4.59652 11.3184 5.31566 11.2445 5.80238 11.0449C6.26449 10.8562 6.47504 10.5828 6.5352 10.2547C6.58715 9.96484 6.54613 9.79805 6.49965 9.69688C6.4477 9.5875 6.34652 9.46719 6.14418 9.3332C5.69574 9.04062 5.00941 8.84922 4.12074 8.61406L4.04418 8.59492C3.26488 8.38711 2.30785 8.13281 1.59691 7.66797C1.20863 7.41367 0.844961 7.06641 0.618008 6.58516C0.388321 6.0957 0.341836 5.54883 0.451211 4.96641C0.648086 3.92188 1.43012 3.24375 2.31879 2.89102C2.68246 2.74609 3.08168 2.64766 3.50004 2.59023V1.625C3.50004 1.14102 3.89106 0.75 4.37504 0.75Z" fill="#4B5563"/>
</g>
<defs>
<clipPath id="clip0_714_4878">
<path d="M0 0.75H8.75V14.75H0V0.75Z" fill="white"/>
</clipPath>
</defs>
</svg>
