<svg width="40" height="40" viewBox="0 0 40 40" fill="none" xmlns="http://www.w3.org/2000/svg">
<g clip-path="url(#clip0_12_2)">
<path d="M38.9139 0.43731C39.703 0.984185 40.117 1.9295 39.9686 2.87481L34.9686 35.3748C34.8514 36.1326 34.3905 36.7967 33.7186 37.1717C33.0467 37.5467 32.242 37.5936 31.5311 37.2967L22.1873 33.4139L16.8358 39.2029C16.1405 39.9607 15.0467 40.2107 14.0858 39.8357C13.1248 39.4607 12.4998 38.5311 12.4998 37.4998V30.9686C12.4998 30.6561 12.617 30.3592 12.828 30.1248L25.9217 15.8436C26.3748 15.3514 26.3592 14.5936 25.8905 14.1248C25.4217 13.6561 24.6639 13.6248 24.1717 14.0701L8.28109 28.1873L1.38265 24.7342C0.554525 24.3201 0.0232747 23.492 -0.000162848 22.5701C-0.0236003 21.6482 0.460775 20.7889 1.25765 20.3279L36.2576 0.327935C37.0936 -0.148627 38.1248 -0.101752 38.9139 0.43731Z" fill="#1F6763"/>
</g>
<defs>
<clipPath id="clip0_12_2">
<rect width="40" height="40" fill="white"/>
</clipPath>
</defs>
</svg>
