<svg viewBox="0 0 25 24" fill="none" xmlns="http://www.w3.org/2000/svg">
<path d="M15.7235 9.216L16.7765 10.2847L12.4318 14.565C12.1415 14.8553 11.7597 15 11.3765 15C10.9932 15 10.6078 14.8538 10.3145 14.5612L8.228 12.5392L9.27275 11.4615L11.3675 13.4918L15.7235 9.216ZM21.5 12C21.5 16.9628 17.4628 21 12.5 21C7.53725 21 3.5 16.9628 3.5 12C3.5 7.03725 7.53725 3 12.5 3C17.4628 3 21.5 7.03725 21.5 12ZM20 12C20 7.8645 16.6355 4.5 12.5 4.5C8.3645 4.5 5 7.8645 5 12C5 16.1355 8.3645 19.5 12.5 19.5C16.6355 19.5 20 16.1355 20 12Z" fill="#15B8A9"/>
</svg>
