<svg width="16" height="20" viewBox="0 0 16 20" fill="none" xmlns="http://www.w3.org/2000/svg">
<path d="M15.875 20H0.125V0H15.875V20Z" stroke="#E5E7EB"/>
<g clip-path="url(#clip0_795_2583)">
<path d="M0.125 6.25C0.125 5.28477 0.909766 4.5 1.875 4.5H8.875C9.84023 4.5 10.625 5.28477 10.625 6.25V13.25C10.625 14.2152 9.84023 15 8.875 15H1.875C0.909766 15 0.125 14.2152 0.125 13.25V6.25ZM15.4129 5.47891C15.6973 5.63203 15.875 5.92734 15.875 6.25V13.25C15.875 13.5727 15.6973 13.868 15.4129 14.0211C15.1285 14.1742 14.784 14.1578 14.5133 13.9773L11.8883 12.2273L11.5 11.9676V11.5V8V7.53242L11.8883 7.27266L14.5133 5.52266C14.7812 5.34492 15.1258 5.32578 15.4129 5.47891Z" fill="#2563EB"/>
</g>
<defs>
<clipPath id="clip0_795_2583">
<path d="M0.125 2.75H15.875V16.75H0.125V2.75Z" fill="white"/>
</clipPath>
</defs>
</svg>
