<svg width="19" height="16" viewBox="0 0 19 16" fill="none" xmlns="http://www.w3.org/2000/svg">
<g clip-path="url(#clip0_224_981)">
<path d="M0.71875 2C0.71875 0.896875 1.61563 0 2.71875 0H7.71875V4C7.71875 4.55312 8.16563 5 8.71875 5H12.7188V9H7.46875C7.05312 9 6.71875 9.33438 6.71875 9.75C6.71875 10.1656 7.05312 10.5 7.46875 10.5H12.7188V14C12.7188 15.1031 11.8219 16 10.7188 16H2.71875C1.61563 16 0.71875 15.1031 0.71875 14V2ZM12.7188 10.5V9H16.1594L14.9406 7.78125C14.6469 7.4875 14.6469 7.0125 14.9406 6.72188C15.2344 6.43125 15.7094 6.42813 16 6.72188L18.5 9.22188C18.7938 9.51562 18.7938 9.99063 18.5 10.2812L16 12.7812C15.7063 13.075 15.2312 13.075 14.9406 12.7812C14.65 12.4875 14.6469 12.0125 14.9406 11.7219L16.1594 10.5031H12.7188V10.5ZM12.7188 4H8.71875V0L12.7188 4Z" fill="#6B7280"/>
</g>
<defs>
<clipPath id="clip0_224_981">
<path d="M0.71875 0H18.7188V16H0.71875V0Z" fill="white"/>
</clipPath>
</defs>
</svg>
