<svg width="13" height="15" viewBox="0 0 13 15" fill="none" xmlns="http://www.w3.org/2000/svg">
<g clip-path="url(#clip0_714_4867)">
<g clip-path="url(#clip1_714_4867)">
<path d="M2.625 1.625V2.5H1.3125C0.587891 2.5 0 3.08789 0 3.8125V5.125H12.25V3.8125C12.25 3.08789 11.6621 2.5 10.9375 2.5H9.625V1.625C9.625 1.14102 9.23398 0.75 8.75 0.75C8.26602 0.75 7.875 1.14102 7.875 1.625V2.5H4.375V1.625C4.375 1.14102 3.98398 0.75 3.5 0.75C3.01602 0.75 2.625 1.14102 2.625 1.625ZM12.25 6H0V13.4375C0 14.1621 0.587891 14.75 1.3125 14.75H10.9375C11.6621 14.75 12.25 14.1621 12.25 13.4375V6Z" fill="#4B5563"/>
</g>
</g>
<defs>
<clipPath id="clip0_714_4867">
<rect width="12.25" height="14" fill="white" transform="translate(0 0.75)"/>
</clipPath>
<clipPath id="clip1_714_4867">
<path d="M0 0.75H12.25V14.75H0V0.75Z" fill="white"/>
</clipPath>
</defs>
</svg>
