<svg width="14" height="20" viewBox="0 0 14 20" fill="none" xmlns="http://www.w3.org/2000/svg">
<path d="M14 20H0V0H14V20Z" stroke="#E5E7EB"/>
<g clip-path="url(#clip0_795_2580)">
<path d="M6.99996 15C10.8664 15 14 12.4543 14 9.3125C14 6.1707 10.8664 3.625 6.99996 3.625C3.13355 3.625 -4.42328e-05 6.1707 -4.42328e-05 9.3125C-4.42328e-05 10.5457 0.48394 11.6859 1.30425 12.6184C1.2523 13.2883 0.992534 13.8844 0.719096 14.3383C0.568706 14.5898 0.415581 14.7922 0.303471 14.9289C0.24605 14.9973 0.2023 15.0492 0.169487 15.0848C0.153081 15.1012 0.142143 15.1148 0.13394 15.123L0.125737 15.1312C-4.42322e-05 15.257 -0.0355911 15.443 0.0327683 15.607C0.101128 15.7711 0.259721 15.8777 0.437456 15.8777C1.22222 15.8777 2.01246 15.6344 2.66871 15.35C3.29488 15.0766 3.82808 14.7512 4.15347 14.5133C5.023 14.8277 5.9855 15.0027 6.99996 15.0027V15ZM5.548 7.58438C5.72574 7.52422 5.92261 7.58711 6.03746 7.7375L6.99996 9.01992L7.96246 7.7375C8.07456 7.58711 8.27144 7.52422 8.45191 7.58438C8.63238 7.64453 8.74996 7.81133 8.74996 8V10.625C8.74996 10.8656 8.55308 11.0625 8.31246 11.0625C8.07183 11.0625 7.87496 10.8656 7.87496 10.625V9.3125L7.34996 10.0125C7.26792 10.1219 7.13667 10.1875 6.99996 10.1875C6.86324 10.1875 6.73199 10.1219 6.64996 10.0125L6.12496 9.3125V10.625C6.12496 10.8656 5.92808 11.0625 5.68746 11.0625C5.44683 11.0625 5.24996 10.8656 5.24996 10.625V8C5.24996 7.81133 5.37027 7.64453 5.548 7.58438ZM10.2812 8.62344C10.2812 8.62891 10.2812 8.63438 10.2812 8.63438C10.2839 8.63711 10.2976 8.65625 10.3414 8.68086C10.448 8.74375 10.6039 8.79297 10.8418 8.8668L10.8582 8.87227C11.0605 8.93242 11.3312 9.01445 11.5472 9.15117C11.796 9.30703 12.023 9.5668 12.0285 9.96875C12.0339 10.3789 11.8207 10.6797 11.5418 10.852C11.282 11.0133 10.9703 11.068 10.7023 11.0598C10.3687 11.0488 10.0543 10.9395 9.81089 10.8574C9.77261 10.8438 9.73706 10.8328 9.70152 10.8191C9.47183 10.7426 9.34878 10.4937 9.42535 10.2668C9.50191 10.0398 9.75074 9.91406 9.97769 9.99062C10.0242 10.007 10.0679 10.0207 10.1117 10.0344C10.3605 10.1191 10.5382 10.1793 10.7296 10.1848C10.8746 10.1902 11.0031 10.1574 11.0796 10.1082C11.1125 10.0863 11.1289 10.0672 11.1371 10.0535C11.1425 10.0426 11.1535 10.0207 11.1535 9.97969V9.97422C11.1535 9.95508 11.1535 9.93594 11.0796 9.88945C10.9757 9.82383 10.8171 9.77187 10.5875 9.70078L10.5546 9.68984C10.3578 9.62969 10.098 9.55312 9.89019 9.42734C9.6441 9.27969 9.40621 9.02539 9.40621 8.62344C9.40347 8.20781 9.64136 7.9207 9.91206 7.75938C10.1691 7.60898 10.4726 7.5543 10.7242 7.55703C10.9976 7.5625 11.2628 7.61992 11.4871 7.67734C11.7195 7.74023 11.8589 7.97813 11.796 8.21328C11.7332 8.44844 11.4953 8.58516 11.2601 8.52227C11.0605 8.47031 10.8746 8.43203 10.7105 8.4293C10.5765 8.42656 10.4425 8.45938 10.3578 8.50859C10.3195 8.53047 10.3003 8.55234 10.2921 8.56328C10.2867 8.57148 10.2812 8.58516 10.2812 8.61523V8.62344ZM2.84371 8.62344C2.84371 8.62891 2.84371 8.63438 2.84371 8.63438C2.84644 8.63711 2.86011 8.65625 2.90386 8.68086C3.0105 8.74375 3.16636 8.79297 3.40425 8.8668L3.42066 8.87227C3.623 8.93242 3.89371 9.01445 4.10972 9.15117C4.35855 9.30703 4.5855 9.5668 4.59097 9.96875C4.59644 10.3789 4.38316 10.6797 4.10425 10.852C3.84449 11.0133 3.53277 11.068 3.2648 11.0598C2.92847 11.0488 2.60308 10.9367 2.35699 10.852C2.32144 10.841 2.28863 10.8301 2.25855 10.8191C2.02886 10.7426 1.90582 10.4937 1.98238 10.2668C2.05894 10.0398 2.30777 9.91406 2.53472 9.99062C2.573 10.0043 2.61128 10.0152 2.64683 10.0289C2.9066 10.1164 3.098 10.182 3.29488 10.1875C3.4398 10.193 3.56832 10.1602 3.64488 10.1109C3.67769 10.0891 3.6941 10.0699 3.7023 10.0563C3.70777 10.0453 3.71871 10.0234 3.71871 9.98242V9.97695C3.71871 9.95781 3.71871 9.93867 3.64488 9.89219C3.54097 9.82656 3.38238 9.77461 3.15269 9.70352L3.11988 9.69258C2.923 9.63242 2.66324 9.55586 2.45542 9.43008C2.20933 9.28516 1.97144 9.03086 1.96871 8.62891C1.96597 8.21328 2.20386 7.92617 2.47457 7.76484C2.7316 7.61445 3.03511 7.55977 3.28667 7.5625C3.54644 7.56523 3.89371 7.61992 4.13707 7.68281C4.36949 7.7457 4.50894 7.98359 4.44605 8.21875C4.38316 8.45391 4.14527 8.59063 3.91011 8.52773C3.72964 8.47852 3.45074 8.4375 3.273 8.43477C3.13902 8.43203 3.00503 8.46484 2.92027 8.51406C2.88199 8.53594 2.86285 8.55781 2.85464 8.56875C2.84917 8.57695 2.84371 8.59062 2.84371 8.6207V8.62344Z" fill="#16A34A"/>
</g>
<defs>
<clipPath id="clip0_795_2580">
<path d="M0 2.75H14V16.75H0V2.75Z" fill="white"/>
</clipPath>
</defs>
</svg>
