<svg width="16" height="16" viewBox="0 0 16 16" fill="none" xmlns="http://www.w3.org/2000/svg">
<path d="M9.10005 10.1304C7.64425 9.51404 6.48659 8.35369 5.87357 6.89647L7.57356 5.19348L4.44358 2.061L2.85809 3.64599C2.58309 3.92256 2.36567 4.25091 2.2184 4.61206C2.07112 4.9732 1.99693 5.35997 2.0001 5.74997C2.0001 9.37395 6.62606 13.9999 10.25 13.9999C10.64 14.0033 11.0268 13.9292 11.3879 13.7819C11.749 13.6347 12.0772 13.4171 12.3535 13.1419L13.939 11.5564L10.8065 8.42395L9.10005 10.1304ZM11.646 12.4349C11.4624 12.6169 11.2444 12.7606 11.0048 12.8576C10.7651 12.9546 10.5086 13.003 10.25 12.9999C7.13356 12.9999 3.00009 8.86645 3.00009 5.74997C2.99715 5.49139 3.04557 5.2348 3.14256 4.99508C3.23955 4.75535 3.38317 4.53727 3.56509 4.35348L4.44358 3.47499L6.16207 5.19348L4.69458 6.66097L4.81708 6.96797C5.1777 7.93261 5.74145 8.80848 6.47014 9.53622C7.19883 10.264 8.07543 10.8266 9.04055 11.1859L9.34355 11.3014L10.8065 9.83794L12.525 11.5564L11.646 12.4349ZM9.00005 2.99999V2C10.3257 2.00146 11.5966 2.5287 12.5339 3.46606C13.4713 4.40342 13.9986 5.67434 14 6.99997H13C12.9988 5.93947 12.577 4.92276 11.8271 4.17287C11.0773 3.42299 10.0605 3.00118 9.00005 2.99999ZM9.00005 4.99998V3.99999C9.79545 4.00078 10.558 4.3171 11.1205 4.87954C11.6829 5.44197 11.9992 6.20457 12 6.99997H11C11 6.46954 10.7893 5.96083 10.4143 5.58576C10.0392 5.21069 9.53048 4.99998 9.00005 4.99998Z" fill="#668091"/>
</svg>
