<svg width="24" height="20" viewBox="0 0 24 20" fill="none" xmlns="http://www.w3.org/2000/svg">
<g clip-path="url(#clip0_542_4706)">
<path d="M3.25 2.5C1.87109 2.5 0.75 3.62109 0.75 5V15C0.75 16.3789 1.87109 17.5 3.25 17.5H20.75C22.1289 17.5 23.25 16.3789 23.25 15V5C23.25 3.62109 22.1289 2.5 20.75 2.5H3.25ZM5.75 15H3.25V12.5C4.62891 12.5 5.75 13.6211 5.75 15ZM3.25 7.5V5H5.75C5.75 6.37891 4.62891 7.5 3.25 7.5ZM18.25 15C18.25 13.6211 19.3711 12.5 20.75 12.5V15H18.25ZM20.75 7.5C19.3711 7.5 18.25 6.37891 18.25 5H20.75V7.5ZM12 6.25C12.9946 6.25 13.9484 6.64509 14.6517 7.34835C15.3549 8.05161 15.75 9.00544 15.75 10C15.75 10.9946 15.3549 11.9484 14.6517 12.6517C13.9484 13.3549 12.9946 13.75 12 13.75C11.0054 13.75 10.0516 13.3549 9.34835 12.6517C8.64509 11.9484 8.25 10.9946 8.25 10C8.25 9.00544 8.64509 8.05161 9.34835 7.34835C10.0516 6.64509 11.0054 6.25 12 6.25Z" fill="#15B8A9"/>
</g>
<defs>
<clipPath id="clip0_542_4706">
<path d="M0.75 0H23.25V20H0.75V0Z" fill="white"/>
</clipPath>
</defs>
</svg>
