<svg width="20" height="20" viewBox="0 0 20 20" fill="none" xmlns="http://www.w3.org/2000/svg">
<g clip-path="url(#clip0_542_4698)">
<g clip-path="url(#clip1_542_4698)">
<path d="M9.50778 0.101563L0.757777 3.85156C0.210902 4.08594 -0.0937856 4.67187 0.0273081 5.25C0.148402 5.82812 0.656214 6.25 1.24996 6.25V6.5625C1.24996 7.08203 1.66793 7.5 2.18746 7.5H17.8125C18.332 7.5 18.75 7.08203 18.75 6.5625V6.25C19.3437 6.25 19.8554 5.83203 19.9726 5.25C20.0898 4.66797 19.7851 4.08203 19.2422 3.85156L10.4922 0.101563C10.1797 -0.03125 9.82028 -0.03125 9.50778 0.101563ZM4.99996 8.75H2.49996V16.418C2.47653 16.4297 2.45309 16.4453 2.42965 16.4609L0.554652 17.7109C0.0976206 18.0156 -0.109411 18.5859 0.0507456 19.1133C0.210902 19.6406 0.699183 20 1.24996 20H18.75C19.3007 20 19.7851 19.6406 19.9453 19.1133C20.1054 18.5859 19.9023 18.0156 19.4414 17.7109L17.5664 16.4609C17.5429 16.4453 17.5195 16.4336 17.4961 16.418V8.75H15V16.25H13.4375V8.75H10.9375V16.25H9.06246V8.75H6.56246V16.25H4.99996V8.75ZM9.99996 2.5C10.3315 2.5 10.6494 2.6317 10.8838 2.86612C11.1183 3.10054 11.25 3.41848 11.25 3.75C11.25 4.08152 11.1183 4.39946 10.8838 4.63388C10.6494 4.8683 10.3315 5 9.99996 5C9.66844 5 9.3505 4.8683 9.11608 4.63388C8.88166 4.39946 8.74996 4.08152 8.74996 3.75C8.74996 3.41848 8.88166 3.10054 9.11608 2.86612C9.3505 2.6317 9.66844 2.5 9.99996 2.5Z" fill="#15B8A9"/>
</g>
</g>
<defs>
<clipPath id="clip0_542_4698">
<rect width="20" height="20" fill="white"/>
</clipPath>
<clipPath id="clip1_542_4698">
<path d="M0 0H20V20H0V0Z" fill="white"/>
</clipPath>
</defs>
</svg>
