<svg width="16" height="20" viewBox="0 0 16 20" fill="none" xmlns="http://www.w3.org/2000/svg">
<g clip-path="url(#clip0_542_4692)">
<g clip-path="url(#clip1_542_4692)">
<path d="M4.85127 11.5586C4.71455 12.3086 4.17158 15.8047 4.01142 16.793C3.99971 16.8633 3.97236 16.8906 3.89424 16.8906H0.980175C0.6833 16.8906 0.468456 16.6328 0.507518 16.3477L2.79658 1.82032C2.85517 1.44532 3.19111 1.16016 3.57783 1.16016C9.52705 1.16016 10.027 1.01563 11.5466 1.60548C13.8942 2.51563 14.1091 4.71095 13.2653 7.08595C12.4255 9.53126 10.4333 10.582 7.79267 10.6133C6.09736 10.6406 5.07783 10.3399 4.85127 11.5586ZM14.4489 5.93751C14.3786 5.88673 14.3513 5.8672 14.3317 5.98829C14.2536 6.4336 14.1325 6.8672 13.988 7.30079C12.4294 11.7461 8.10908 11.3594 5.99971 11.3594C5.76142 11.3594 5.60517 11.4883 5.57392 11.7266C4.69111 17.2109 4.51533 18.3555 4.51533 18.3555C4.47627 18.6328 4.65205 18.8594 4.92939 18.8594H7.40986C7.7458 18.8594 8.02314 18.6133 8.08955 18.2774C8.11689 18.0664 8.04658 18.5156 8.65205 14.7109C8.83174 13.8516 9.21064 13.9414 9.79658 13.9414C12.57 13.9414 14.7341 12.8164 15.3786 9.5547C15.6325 8.19532 15.5583 6.76563 14.4489 5.93751Z" fill="#15B8A9"/>
</g>
</g>
<defs>
<clipPath id="clip0_542_4692">
<rect width="15" height="20" fill="white" transform="translate(0.5)"/>
</clipPath>
<clipPath id="clip1_542_4692">
<path d="M0.5 0H15.5V20H0.5V0Z" fill="white"/>
</clipPath>
</defs>
</svg>
