<svg width="20" height="20" viewBox="0 0 20 20" fill="none" xmlns="http://www.w3.org/2000/svg">
<rect width="20" height="20" fill="white"/>
<path d="M11.2324 8.23596C9.87737 7.73263 9.13904 7.3468 9.13904 6.73346C9.13904 6.21513 9.56487 5.9193 10.3249 5.9193C11.714 5.9193 13.1407 6.4543 14.1232 6.93596L14.6782 3.51013C13.899 3.13846 12.3057 2.5293 10.1032 2.5293C8.54487 2.5293 7.24904 2.9368 6.3232 3.6968C5.3607 4.4918 4.85904 5.6418 4.85904 7.03013C4.85904 9.5493 6.3982 10.6235 8.8982 11.5326C10.5115 12.106 11.0474 12.5143 11.0474 13.1443C11.0474 13.7543 10.5232 14.1068 9.57904 14.1068C8.40987 14.1068 6.48237 13.5326 5.21987 12.7918L4.6582 16.256C5.74487 16.866 7.7457 17.496 9.82237 17.496C11.469 17.496 12.8424 17.1068 13.7682 16.366C14.8057 15.5518 15.3432 14.3476 15.3432 12.7918C15.3432 10.216 13.769 9.1418 11.2307 8.23513H11.2324V8.23596Z" fill="#15B8A9"/>
</svg>
