<svg width="24" height="20" viewBox="0 0 24 20" fill="none" xmlns="http://www.w3.org/2000/svg">
<g clip-path="url(#clip0_542_4686)">
<path d="M20.75 3.125C21.0938 3.125 21.375 3.40625 21.375 3.75V5H2.625V3.75C2.625 3.40625 2.90625 3.125 3.25 3.125H20.75ZM21.375 8.75V16.25C21.375 16.5938 21.0938 16.875 20.75 16.875H3.25C2.90625 16.875 2.625 16.5938 2.625 16.25V8.75H21.375ZM3.25 1.25C1.87109 1.25 0.75 2.37109 0.75 3.75V16.25C0.75 17.6289 1.87109 18.75 3.25 18.75H20.75C22.1289 18.75 23.25 17.6289 23.25 16.25V3.75C23.25 2.37109 22.1289 1.25 20.75 1.25H3.25ZM5.4375 13.125C4.91797 13.125 4.5 13.543 4.5 14.0625C4.5 14.582 4.91797 15 5.4375 15H7.3125C7.83203 15 8.25 14.582 8.25 14.0625C8.25 13.543 7.83203 13.125 7.3125 13.125H5.4375ZM10.4375 13.125C9.91797 13.125 9.5 13.543 9.5 14.0625C9.5 14.582 9.91797 15 10.4375 15H14.8125C15.332 15 15.75 14.582 15.75 14.0625C15.75 13.543 15.332 13.125 14.8125 13.125H10.4375Z" fill="#15B8A9"/>
</g>
<defs>
<clipPath id="clip0_542_4686">
<path d="M0.75 0H23.25V20H0.75V0Z" fill="white"/>
</clipPath>
</defs>
</svg>
