<svg width="20" height="20" viewBox="0 0 20 20" fill="none" xmlns="http://www.w3.org/2000/svg">
<g clip-path="url(#clip0_542_4596)">
<path d="M2.41016 6.61719L6.375 17.4766C3.60156 16.1328 1.69141 13.2891 1.69141 10C1.69141 8.79297 1.94922 7.65234 2.41016 6.61719ZM15.6094 9.58203C15.6094 8.55469 15.2422 7.84375 14.9258 7.28906C14.5039 6.60547 14.1094 6.02344 14.1094 5.33984C14.1094 4.57422 14.6875 3.86328 15.5039 3.86328C15.5391 3.86328 15.5742 3.86719 15.6133 3.87109C14.1328 2.51562 12.1641 1.6875 10 1.6875C7.09766 1.6875 4.54297 3.17578 3.05469 5.43359C3.25 5.44141 3.43359 5.44531 3.58984 5.44531C4.45703 5.44531 5.80469 5.33984 5.80469 5.33984C6.25391 5.3125 6.30469 5.97266 5.85938 6.02344C5.85938 6.02344 5.41016 6.07422 4.91016 6.10156L7.9375 15.1016L9.75781 9.64844L8.46484 6.10156C8.01562 6.07422 7.59375 6.02344 7.59375 6.02344C7.14453 5.99609 7.19922 5.3125 7.64453 5.33984C7.64453 5.33984 9.01562 5.44531 9.83203 5.44531C10.6992 5.44531 12.0469 5.33984 12.0469 5.33984C12.4961 5.3125 12.5469 5.97266 12.1016 6.02344C12.1016 6.02344 11.6523 6.07422 11.1523 6.10156L14.1562 15.0352L14.9844 12.2656C15.3359 11.1172 15.6094 10.293 15.6094 9.58203ZM10.1445 10.7266L7.65234 17.9727C8.39844 18.1914 9.18359 18.3125 10 18.3125C10.9688 18.3125 11.8945 18.1445 12.7578 17.8398C12.7344 17.8047 12.7148 17.7656 12.6992 17.7266L10.1445 10.7266ZM17.293 6.01172C17.3281 6.27734 17.3477 6.55859 17.3477 6.86719C17.3477 7.71094 17.1914 8.65625 16.7148 9.84375L14.1758 17.1836C16.6484 15.7422 18.3086 13.0664 18.3086 10C18.3086 8.55469 17.9414 7.19531 17.293 6.01172ZM19.6875 10C19.6875 15.3438 15.3398 19.6875 10 19.6875C4.65625 19.6875 0.3125 15.3398 0.3125 10C0.3125 4.65625 4.65625 0.3125 10 0.3125C15.3398 0.3125 19.6875 4.65625 19.6875 10ZM19.2422 10C19.2422 4.90234 15.0938 0.757812 10 0.757812C4.90234 0.757812 0.757812 4.90234 0.757812 10C0.757812 15.0977 4.90625 19.2422 10 19.2422C15.0977 19.2422 19.2422 15.0977 19.2422 10Z" fill="#15B8A9"/>
</g>
<defs>
<clipPath id="clip0_542_4596">
<path d="M0 0H20V20H0V0Z" fill="white"/>
</clipPath>
</defs>
</svg>
