<svg width="82" height="26" viewBox="0 0 82 26" fill="none" xmlns="http://www.w3.org/2000/svg">
<g clip-path="url(#clip0_542_4615)">
<path d="M27.164 12.002V6.40195H29.588C30.0893 6.40195 30.5213 6.48462 30.884 6.64995C31.2467 6.80995 31.5267 7.04195 31.724 7.34595C31.9213 7.64995 32.02 8.01262 32.02 8.43395C32.02 8.84995 31.9213 9.20995 31.724 9.51395C31.5267 9.81795 31.2467 10.0526 30.884 10.218C30.5213 10.378 30.0893 10.458 29.588 10.458H27.884L28.46 9.87395V12.002H27.164ZM28.46 10.018L27.884 9.40195H29.516C29.916 9.40195 30.2147 9.31662 30.412 9.14595C30.6093 8.97529 30.708 8.73795 30.708 8.43395C30.708 8.12462 30.6093 7.88462 30.412 7.71395C30.2147 7.54329 29.916 7.45795 29.516 7.45795H27.884L28.46 6.84195V10.018ZM32.9453 12.002V6.40195H35.3693C35.8706 6.40195 36.3026 6.48462 36.6653 6.64995C37.0279 6.80995 37.3079 7.04195 37.5053 7.34595C37.7026 7.64995 37.8013 8.01262 37.8013 8.43395C37.8013 8.84995 37.7026 9.20995 37.5053 9.51395C37.3079 9.81262 37.0279 10.042 36.6653 10.202C36.3026 10.362 35.8706 10.442 35.3693 10.442H33.6653L34.2413 9.87395V12.002H32.9453ZM36.5052 12.002L35.1053 9.96995H36.4893L37.9053 12.002H36.5052ZM34.2413 10.018L33.6653 9.40995H35.2973C35.6973 9.40995 35.9959 9.32462 36.1933 9.15395C36.3906 8.97795 36.4893 8.73795 36.4893 8.43395C36.4893 8.12462 36.3906 7.88462 36.1933 7.71395C35.9959 7.54329 35.6973 7.45795 35.2973 7.45795H33.6653L34.2413 6.84195V10.018ZM38.8281 12.002V6.40195H40.1241V12.002H38.8281ZM43.1096 12.002L40.6936 6.40195H42.0936L44.2056 11.362H43.3816L45.5256 6.40195H46.8136L44.3896 12.002H43.1096ZM46.3577 12.002L48.8537 6.40195H50.1337L52.6377 12.002H51.2777L49.2297 7.05795H49.7417L47.6857 12.002H46.3577ZM47.6057 10.802L47.9497 9.81795H50.8297L51.1817 10.802H47.6057ZM55.8206 12.098C55.3886 12.098 54.9859 12.0286 54.6126 11.89C54.2446 11.746 53.9246 11.5433 53.6526 11.282C53.3806 11.0206 53.1672 10.714 53.0126 10.362C52.8632 10.01 52.7886 9.62329 52.7886 9.20195C52.7886 8.78062 52.8632 8.39395 53.0126 8.04195C53.1672 7.68995 53.3806 7.38329 53.6526 7.12195C53.9299 6.86062 54.2526 6.66062 54.6206 6.52195C54.9886 6.37795 55.3912 6.30595 55.8286 6.30595C56.3139 6.30595 56.7512 6.39129 57.1406 6.56195C57.5352 6.72729 57.8659 6.97262 58.1326 7.29795L57.3006 8.06595C57.1086 7.84729 56.8952 7.68462 56.6606 7.57795C56.4259 7.46595 56.1699 7.40995 55.8926 7.40995C55.6312 7.40995 55.3912 7.45262 55.1726 7.53795C54.9539 7.62329 54.7646 7.74595 54.6046 7.90595C54.4446 8.06595 54.3192 8.25529 54.2286 8.47395C54.1432 8.69262 54.1006 8.93529 54.1006 9.20195C54.1006 9.46862 54.1432 9.71129 54.2286 9.92995C54.3192 10.1486 54.4446 10.338 54.6046 10.498C54.7646 10.658 54.9539 10.7806 55.1726 10.866C55.3912 10.9513 55.6312 10.994 55.8926 10.994C56.1699 10.994 56.4259 10.9406 56.6606 10.834C56.8952 10.722 57.1086 10.554 57.3006 10.33L58.1326 11.098C57.8659 11.4233 57.5352 11.6713 57.1406 11.842C56.7512 12.0126 56.3112 12.098 55.8206 12.098ZM60.3529 12.002V9.71395L60.6489 10.498L58.1849 6.40195H59.5609L61.4489 9.54595H60.6569L62.5529 6.40195H63.8249L61.3609 10.498L61.6489 9.71395V12.002H60.3529Z" fill="black"/>
<path d="M27.2728 20.2285V14.6285H29.3688C29.8435 14.6285 30.2515 14.7058 30.5928 14.8605C30.9342 15.0098 31.1955 15.2285 31.3768 15.5165C31.5635 15.7992 31.6568 16.1432 31.6568 16.5485C31.6568 16.9432 31.5635 17.2845 31.3768 17.5725C31.1955 17.8552 30.9342 18.0738 30.5928 18.2285C30.2515 18.3832 29.8435 18.4605 29.3688 18.4605H27.6008L27.8648 18.1805V20.2285H27.2728ZM27.8648 18.2285L27.6008 17.9405H29.3528C29.9128 17.9405 30.3368 17.8205 30.6248 17.5805C30.9182 17.3352 31.0648 16.9912 31.0648 16.5485C31.0648 16.1005 30.9182 15.7538 30.6248 15.5085C30.3368 15.2632 29.9128 15.1405 29.3528 15.1405H27.6008L27.8648 14.8605V18.2285ZM32.9369 20.2285V14.6285H35.0329C35.5076 14.6285 35.9156 14.7058 36.2569 14.8605C36.5982 15.0098 36.8596 15.2285 37.0409 15.5165C37.2276 15.7992 37.3209 16.1432 37.3209 16.5485C37.3209 16.9432 37.2276 17.2845 37.0409 17.5725C36.8596 17.8552 36.5982 18.0738 36.2569 18.2285C35.9156 18.3778 35.5076 18.4525 35.0329 18.4525H33.2649L33.5289 18.1805V20.2285H32.9369ZM36.7609 20.2285L35.3209 18.1965H35.9609L37.4089 20.2285H36.7609ZM33.5289 18.2285L33.2649 17.9485H35.0169C35.5769 17.9485 36.0009 17.8258 36.2889 17.5805C36.5822 17.3352 36.7289 16.9912 36.7289 16.5485C36.7289 16.1005 36.5822 15.7538 36.2889 15.5085C36.0009 15.2632 35.5769 15.1405 35.0169 15.1405H33.2649L33.5289 14.8605V18.2285ZM41.1662 20.2765C40.7448 20.2765 40.3528 20.2072 39.9902 20.0685C39.6328 19.9245 39.3208 19.7245 39.0542 19.4685C38.7928 19.2072 38.5875 18.9058 38.4382 18.5645C38.2942 18.2178 38.2222 17.8392 38.2222 17.4285C38.2222 17.0178 38.2942 16.6418 38.4382 16.3005C38.5875 15.9538 38.7928 15.6525 39.0542 15.3965C39.3208 15.1352 39.6328 14.9352 39.9902 14.7965C40.3475 14.6525 40.7395 14.5805 41.1662 14.5805C41.5875 14.5805 41.9768 14.6525 42.3342 14.7965C42.6915 14.9352 43.0008 15.1325 43.2622 15.3885C43.5288 15.6445 43.7342 15.9458 43.8782 16.2925C44.0275 16.6392 44.1022 17.0178 44.1022 17.4285C44.1022 17.8392 44.0275 18.2178 43.8782 18.5645C43.7342 18.9112 43.5288 19.2125 43.2622 19.4685C43.0008 19.7245 42.6915 19.9245 42.3342 20.0685C41.9768 20.2072 41.5875 20.2765 41.1662 20.2765ZM41.1662 19.7485C41.5022 19.7485 41.8115 19.6925 42.0942 19.5805C42.3822 19.4632 42.6302 19.3005 42.8382 19.0925C43.0515 18.8792 43.2168 18.6338 43.3342 18.3565C43.4515 18.0738 43.5102 17.7645 43.5102 17.4285C43.5102 17.0925 43.4515 16.7858 43.3342 16.5085C43.2168 16.2258 43.0515 15.9805 42.8382 15.7725C42.6302 15.5592 42.3822 15.3965 42.0942 15.2845C41.8115 15.1672 41.5022 15.1085 41.1662 15.1085C40.8302 15.1085 40.5182 15.1672 40.2302 15.2845C39.9422 15.3965 39.6915 15.5592 39.4782 15.7725C39.2702 15.9805 39.1048 16.2258 38.9822 16.5085C38.8648 16.7858 38.8062 17.0925 38.8062 17.4285C38.8062 17.7592 38.8648 18.0658 38.9822 18.3485C39.1048 18.6312 39.2702 18.8792 39.4782 19.0925C39.6915 19.3005 39.9422 19.4632 40.2302 19.5805C40.5182 19.6925 40.8302 19.7485 41.1662 19.7485ZM46.439 20.2285V15.1405H44.471V14.6285H48.999V15.1405H47.031V20.2285H46.439ZM50.4727 17.1325H53.4327V17.6365H50.4727V17.1325ZM50.5367 19.7165H53.9047V20.2285H49.9447V14.6285H53.7847V15.1405H50.5367V19.7165ZM57.7127 20.2765C57.2913 20.2765 56.902 20.2072 56.5447 20.0685C56.1873 19.9245 55.878 19.7245 55.6167 19.4685C55.3553 19.2125 55.15 18.9112 55.0007 18.5645C54.8567 18.2178 54.7847 17.8392 54.7847 17.4285C54.7847 17.0178 54.8567 16.6392 55.0007 16.2925C55.15 15.9458 55.3553 15.6445 55.6167 15.3885C55.8833 15.1325 56.1953 14.9352 56.5527 14.7965C56.91 14.6525 57.2993 14.5805 57.7207 14.5805C58.126 14.5805 58.5073 14.6498 58.8647 14.7885C59.222 14.9218 59.5233 15.1245 59.7687 15.3965L59.3927 15.7725C59.1633 15.5378 58.91 15.3698 58.6327 15.2685C58.3553 15.1618 58.0567 15.1085 57.7367 15.1085C57.4007 15.1085 57.0887 15.1672 56.8007 15.2845C56.5127 15.3965 56.262 15.5592 56.0487 15.7725C55.8353 15.9805 55.6673 16.2258 55.5447 16.5085C55.4273 16.7858 55.3687 17.0925 55.3687 17.4285C55.3687 17.7645 55.4273 18.0738 55.5447 18.3565C55.6673 18.6338 55.8353 18.8792 56.0487 19.0925C56.262 19.3005 56.5127 19.4632 56.8007 19.5805C57.0887 19.6925 57.4007 19.7485 57.7367 19.7485C58.0567 19.7485 58.3553 19.6952 58.6327 19.5885C58.91 19.4818 59.1633 19.3112 59.3927 19.0765L59.7687 19.4525C59.5233 19.7245 59.222 19.9298 58.8647 20.0685C58.5073 20.2072 58.1233 20.2765 57.7127 20.2765ZM62.0483 20.2285V15.1405H60.0803V14.6285H64.6083V15.1405H62.6403V20.2285H62.0483ZM66.0821 17.1325H69.0421V17.6365H66.0821V17.1325ZM66.1461 19.7165H69.5141V20.2285H65.5541V14.6285H69.3941V15.1405H66.1461V19.7165ZM70.9057 20.2285V14.6285H73.1857C73.783 14.6285 74.3057 14.7485 74.7537 14.9885C75.207 15.2232 75.559 15.5512 75.8097 15.9725C76.0603 16.3938 76.1857 16.8792 76.1857 17.4285C76.1857 17.9778 76.0603 18.4632 75.8097 18.8845C75.559 19.3058 75.207 19.6365 74.7537 19.8765C74.3057 20.1112 73.783 20.2285 73.1857 20.2285H70.9057ZM71.4977 19.7165H73.1537C73.6497 19.7165 74.079 19.6205 74.4417 19.4285C74.8097 19.2312 75.095 18.9618 75.2977 18.6205C75.5003 18.2738 75.6017 17.8765 75.6017 17.4285C75.6017 16.9752 75.5003 16.5778 75.2977 16.2365C75.095 15.8952 74.8097 15.6285 74.4417 15.4365C74.079 15.2392 73.6497 15.1405 73.1537 15.1405H71.4977V19.7165Z" fill="black"/>
<path d="M23.0444 8.17723C20.8917 8.17723 19.1456 6.43115 19.1456 4.27848C19.1456 4.12532 19.0203 4 18.8671 4H9.95571C9.80255 4 9.67723 4.12532 9.67723 4.27848C9.67723 6.43115 7.93115 8.17723 5.77848 8.17723C5.62532 8.17723 5.5 8.30255 5.5 8.45571V8.50306C5.5 9.50838 5.74785 18.4254 14.3084 21.8034C14.3752 21.8284 14.4476 21.8284 14.5117 21.8034C23.0722 18.4254 23.3201 9.50838 23.3201 8.50306V8.45571C23.3201 8.30255 23.1947 8.17723 23.0416 8.17723H23.0444Z" fill="#424242"/>
<path d="M21.3651 9.5929C19.6078 9.03037 18.2377 7.63796 17.7058 5.87238C17.6696 5.75542 17.561 5.67466 17.4385 5.67188H11.387C11.2645 5.67188 11.1559 5.75264 11.1197 5.87238C10.585 7.63796 9.21767 9.03037 7.46045 9.5929C7.33234 9.63189 7.25159 9.75999 7.26829 9.89366C7.60247 12.62 8.96147 17.5547 14.2972 19.9859C14.3696 20.0193 14.4559 20.0193 14.5283 19.9859C19.864 17.5547 21.223 12.62 21.5572 9.89366C21.5739 9.75999 21.4932 9.63468 21.3651 9.59569V9.5929Z" fill="#828282"/>
<path d="M13.6427 14.126L12.1444 12.6277C12.0358 12.5191 12.0358 12.3437 12.1444 12.2351C12.2531 12.1265 12.4285 12.1265 12.5371 12.2351L13.8376 13.5384L16.7143 10.6616C16.8257 10.5558 17.0012 10.5586 17.107 10.6672C17.21 10.7758 17.21 10.9457 17.107 11.0543L14.0326 14.1287C13.9239 14.2374 13.7485 14.2374 13.6399 14.1287L13.6427 14.126Z" fill="white"/>
</g>
<defs>
<clipPath id="clip0_542_4615">
<rect width="73" height="18" fill="white" transform="translate(4.5 4)"/>
</clipPath>
</defs>
</svg>
