<svg width="115" height="32" viewBox="0 0 115 32" fill="none" xmlns="http://www.w3.org/2000/svg">
<path d="M22.5051 12.9989H20.5042V9.00037C20.5042 6.23772 18.2663 4 15.5034 4H13.5025C10.7397 4 8.5018 6.23772 8.5018 9.00037V12.9989H6.5009C5.39995 12.9989 4.5 13.8988 4.5 14.9996V25.9993C4.5 27.1001 5.39995 28 6.5009 28H22.4991C23.6 28 24.5 27.1001 24.5 25.9993V14.9996C24.5 13.8988 23.6 12.9989 22.4991 12.9989H22.5051ZM15.5064 20.7199V23.9985H13.5055V20.7199C12.9086 20.375 12.5066 19.736 12.5066 18.9981C12.5066 17.8943 13.4036 16.9974 14.5075 16.9974C15.6114 16.9974 16.5084 17.8943 16.5084 18.9981C16.5084 19.736 16.1034 20.375 15.5094 20.7199H15.5064ZM18.5063 12.9989H10.5057V9.00037C10.5057 7.34458 11.8496 6.00075 13.5055 6.00075H15.5064C17.1624 6.00075 18.5063 7.34458 18.5063 9.00037V12.9989Z" fill="#424242"/>
<path d="M30.004 15.2366C29.116 15.2366 28.22 14.9726 27.724 14.5886L28.164 13.6126C28.636 13.9566 29.34 14.1966 30.012 14.1966C30.78 14.1966 31.092 13.9406 31.092 13.5966C31.092 12.5486 27.836 13.2686 27.836 11.1886C27.836 10.2366 28.604 9.44462 30.196 9.44462C30.9 9.44462 31.62 9.61262 32.14 9.94062L31.74 10.9246C31.22 10.6286 30.684 10.4846 30.188 10.4846C29.42 10.4846 29.124 10.7726 29.124 11.1246C29.124 12.1566 32.38 11.4446 32.38 13.5006C32.38 14.4366 31.604 15.2366 30.004 15.2366ZM34.5536 14.1006H37.6016V15.1406H33.2656V9.54062H37.4976V10.5806H34.5536V11.7966H37.1536V12.8046H34.5536V14.1006ZM41.2971 15.2366C39.5611 15.2366 38.2651 14.0286 38.2651 12.3406C38.2651 10.6526 39.5611 9.44462 41.3051 9.44462C42.2731 9.44462 43.0811 9.79662 43.6091 10.4366L42.7771 11.2046C42.4011 10.7726 41.9291 10.5486 41.3691 10.5486C40.3211 10.5486 39.5771 11.2846 39.5771 12.3406C39.5771 13.3966 40.3211 14.1326 41.3691 14.1326C41.9291 14.1326 42.4011 13.9086 42.7771 13.4686L43.6091 14.2366C43.0811 14.8846 42.2731 15.2366 41.2971 15.2366ZM46.9254 15.2366C45.3334 15.2366 44.3894 14.3246 44.3894 12.6766V9.54062H45.6854V12.6286C45.6854 13.6926 46.1494 14.1326 46.9334 14.1326C47.7254 14.1326 48.1814 13.6926 48.1814 12.6286V9.54062H49.4614V12.6766C49.4614 14.3246 48.5174 15.2366 46.9254 15.2366ZM55.7021 15.1406H54.3101L53.2301 13.5806H53.1661H52.0381V15.1406H50.7421V9.54062H53.1661C54.6621 9.54062 55.5981 10.3166 55.5981 11.5726C55.5981 12.4126 55.1741 13.0286 54.4461 13.3406L55.7021 15.1406ZM54.2861 11.5726C54.2861 10.9566 53.8861 10.5966 53.0941 10.5966H52.0381V12.5486H53.0941C53.8861 12.5486 54.2861 12.1806 54.2861 11.5726ZM57.9129 14.1006H60.9609V15.1406H56.6249V9.54062H60.8569V10.5806H57.9129V11.7966H60.5129V12.8046H57.9129V14.1006ZM66.9378 15.1886C65.2578 15.1886 64.0098 13.9806 64.0098 12.3406C64.0098 10.7006 65.2578 9.49262 66.9458 9.49262C67.7618 9.49262 68.4978 9.76462 68.9938 10.3086L68.6178 10.6846C68.1618 10.2206 67.6018 10.0206 66.9618 10.0206C65.6098 10.0206 64.5938 11.0126 64.5938 12.3406C64.5938 13.6686 65.6098 14.6606 66.9618 14.6606C67.6018 14.6606 68.1618 14.4606 68.6178 13.9886L68.9938 14.3646C68.4978 14.9086 67.7618 15.1886 66.9378 15.1886ZM74.3518 9.54062H74.9358V15.1406H74.3518V12.5566H70.8478V15.1406H70.2558V9.54062H70.8478V12.0366H74.3518V9.54062ZM77.3556 14.6286H80.7236V15.1406H76.7636V9.54062H80.6036V10.0526H77.3556V12.0446H80.2516V12.5486H77.3556V14.6286ZM84.5159 15.1886C82.8359 15.1886 81.5879 13.9806 81.5879 12.3406C81.5879 10.7006 82.8359 9.49262 84.5239 9.49262C85.3399 9.49262 86.0759 9.76462 86.5719 10.3086L86.1959 10.6846C85.7399 10.2206 85.1799 10.0206 84.5399 10.0206C83.1879 10.0206 82.1719 11.0126 82.1719 12.3406C82.1719 13.6686 83.1879 14.6606 84.5399 14.6606C85.1799 14.6606 85.7399 14.4606 86.1959 13.9886L86.5719 14.3646C86.0759 14.9086 85.3399 15.1886 84.5159 15.1886ZM91.8579 15.1406L89.5699 12.5086L88.4259 13.6686V15.1406H87.8339V9.54062H88.4259V12.9246L91.7139 9.54062H92.3939L89.9699 12.0766L92.5619 15.1406H91.8579ZM95.7663 15.1886C94.0703 15.1886 92.8223 13.9726 92.8223 12.3406C92.8223 10.7086 94.0703 9.49262 95.7663 9.49262C97.4463 9.49262 98.7023 10.7006 98.7023 12.3406C98.7023 13.9806 97.4463 15.1886 95.7663 15.1886ZM95.7663 14.6606C97.1102 14.6606 98.1103 13.6766 98.1103 12.3406C98.1103 11.0046 97.1102 10.0206 95.7663 10.0206C94.4143 10.0206 93.4062 11.0046 93.4062 12.3406C93.4062 13.6766 94.4143 14.6606 95.7663 14.6606ZM102.285 15.1886C100.853 15.1886 99.9812 14.3566 99.9812 12.7486V9.54062H100.573V12.7246C100.573 14.0526 101.197 14.6606 102.285 14.6606C103.381 14.6606 104.005 14.0526 104.005 12.7246V9.54062H104.581V12.7486C104.581 14.3566 103.717 15.1886 102.285 15.1886ZM107.344 15.1406V10.0526H105.376V9.54062H109.904V10.0526H107.936V15.1406H107.344Z" fill="black"/>
<path d="M29.956 22.9093C29.116 22.9093 28.292 22.6133 27.876 22.1813L28.108 21.7253C28.508 22.1173 29.22 22.4053 29.956 22.4053C31.004 22.4053 31.46 21.9653 31.46 21.4133C31.46 19.8773 28.012 20.8213 28.012 18.7493C28.012 17.9253 28.652 17.2133 30.076 17.2133C30.708 17.2133 31.364 17.3973 31.812 17.7093L31.612 18.1813C31.132 17.8693 30.572 17.7173 30.076 17.7173C29.052 17.7173 28.596 18.1733 28.596 18.7333C28.596 20.2693 32.044 19.3413 32.044 21.3813C32.044 22.2053 31.388 22.9093 29.956 22.9093ZM34.8779 22.9093C34.0379 22.9093 33.2139 22.6133 32.7979 22.1813L33.0299 21.7253C33.4299 22.1173 34.1419 22.4053 34.8779 22.4053C35.9259 22.4053 36.3819 21.9653 36.3819 21.4133C36.3819 19.8773 32.9339 20.8213 32.9339 18.7493C32.9339 17.9253 33.5739 17.2133 34.9979 17.2133C35.6299 17.2133 36.2859 17.3973 36.7339 17.7093L36.5339 18.1813C36.0539 17.8693 35.4939 17.7173 34.9979 17.7173C33.9739 17.7173 33.5179 18.1733 33.5179 18.7333C33.5179 20.2693 36.9659 19.3413 36.9659 21.3813C36.9659 22.2053 36.3099 22.9093 34.8779 22.9093ZM38.2558 22.8613V17.2613H38.8478V22.3493H41.9838V22.8613H38.2558ZM45.6524 22.3493H49.0204V22.8613H45.0604V17.2613H48.9004V17.7733H45.6524V19.7653H48.5484V20.2693H45.6524V22.3493ZM54.508 17.2613H55.092V22.8613H54.604L51.004 18.3173V22.8613H50.412V17.2613H50.9L54.508 21.8053V17.2613ZM59.3518 22.9093C57.6718 22.9093 56.4238 21.7013 56.4238 20.0613C56.4238 18.4213 57.6718 17.2133 59.3598 17.2133C60.1758 17.2133 60.9118 17.4853 61.4078 18.0293L61.0318 18.4053C60.5758 17.9413 60.0158 17.7413 59.3758 17.7413C58.0238 17.7413 57.0078 18.7333 57.0078 20.0613C57.0078 21.3893 58.0238 22.3813 59.3758 22.3813C60.0158 22.3813 60.5758 22.1813 61.0318 21.7093L61.4078 22.0853C60.9118 22.6293 60.1758 22.9093 59.3518 22.9093ZM67.1418 22.8613H66.4938L65.2138 21.0613C65.0698 21.0773 64.9258 21.0853 64.7658 21.0853H63.2618V22.8613H62.6698V17.2613H64.7658C66.1898 17.2613 67.0538 17.9813 67.0538 19.1813C67.0538 20.0613 66.5898 20.6773 65.7738 20.9413L67.1418 22.8613ZM64.7498 20.5813C65.8698 20.5813 66.4618 20.0613 66.4618 19.1813C66.4618 18.2853 65.8698 17.7733 64.7498 17.7733H63.2618V20.5813H64.7498ZM72.5329 17.2613L70.2929 20.9253V22.8613H69.7089V20.9253L67.4689 17.2613H68.1009L70.0209 20.4053L71.9409 17.2613H72.5329ZM75.4299 17.2613C76.8539 17.2613 77.7179 17.9813 77.7179 19.1813C77.7179 20.3733 76.8539 21.0933 75.4299 21.0933H73.9259V22.8613H73.3339V17.2613H75.4299ZM75.4139 20.5733C76.5339 20.5733 77.1259 20.0613 77.1259 19.1813C77.1259 18.2853 76.5339 17.7733 75.4139 17.7733H73.9259V20.5733H75.4139ZM79.8984 22.8613V17.7733H77.9304V17.2613H82.4584V17.7733H80.4904V22.8613H79.8984ZM83.4042 22.8613V17.2613H83.9962V22.8613H83.4042ZM88.2663 22.9093C86.5703 22.9093 85.3223 21.6933 85.3223 20.0613C85.3223 18.4293 86.5703 17.2133 88.2663 17.2133C89.9463 17.2133 91.2023 18.4213 91.2023 20.0613C91.2023 21.7013 89.9463 22.9093 88.2663 22.9093ZM88.2663 22.3813C89.6102 22.3813 90.6103 21.3973 90.6103 20.0613C90.6103 18.7253 89.6102 17.7413 88.2663 17.7413C86.9143 17.7413 85.9062 18.7253 85.9062 20.0613C85.9062 21.3973 86.9143 22.3813 88.2663 22.3813ZM96.6252 17.2613H97.2092V22.8613H96.7212L93.1212 18.3173V22.8613H92.5292V17.2613H93.0172L96.6252 21.8053V17.2613Z" fill="black"/>
</svg>
